<svg width="20" height="20" viewBox="0 0 20 20" fill="none" xmlns="http://www.w3.org/2000/svg">
<g clip-path="url(#clip0_1144_1751)">
<path d="M16.0158 1.07544C17.1089 2.16861 17.8755 3.52734 18.2527 5.00001M3.92544 1.07544C2.83227 2.16861 2.06571 3.52734 1.6886 5.00001L3.92544 1.07544Z" stroke="#A4F343" stroke-width="1.73288" stroke-linecap="round" stroke-linejoin="round"/>
<path d="M8.11035 17.797C8.47155 18.4706 9.18229 18.9286 9.99999 18.9286C10.8177 18.9286 11.5284 18.4706 11.8897 17.797" stroke="#A4F343" stroke-width="1.73288" stroke-linecap="round" stroke-linejoin="round"/>
<path d="M6.48015 3.6008C7.41365 2.6673 8.67976 2.14285 9.99993 2.14285C11.3201 2.14285 12.5862 2.6673 13.5197 3.6008C14.4532 4.53431 14.9776 5.80041 14.9776 7.1206C14.9776 7.89738 15.1058 8.62727 15.2986 9.37385C15.3382 9.49728 15.3805 9.61564 15.4255 9.7291C15.7372 10.5169 16.6789 10.7693 17.3125 11.3318C18.1086 12.0384 17.9165 13.3962 17.1858 13.9365C17.1858 13.9365 15.9574 15 9.99993 15C4.04253 15 2.81406 13.9365 2.81406 13.9365C2.08338 13.3962 1.89129 12.0384 2.68735 11.3318C3.32093 10.7693 4.26263 10.5168 4.57443 9.72904C4.84372 9.04871 5.0222 8.19261 5.0222 7.1206C5.0222 5.80041 5.54663 4.53431 6.48015 3.6008Z" stroke="#A4F343" stroke-width="1.73288" stroke-linecap="round" stroke-linejoin="round"/>
</g>
<defs>
<clipPath id="clip0_1144_1751">
<rect width="20" height="20" fill="white"/>
</clipPath>
</defs>
</svg>
