<svg width="18" height="20" viewBox="0 0 18 20" fill="none" xmlns="http://www.w3.org/2000/svg">
<path d="M1 2V8V8.13896C1 9.02223 2.06139 9.47178 2.6958 8.8572L2.77813 8.77744C3.20623 8.36272 3.89977 8.4122 4.26465 8.8835L4.51655 9.20888C4.85476 9.64574 5.48316 9.72555 5.91985 9.38712L7.14971 8.43398C7.48519 8.17398 7.94826 8.15408 8.3048 8.38435L10.2639 9.64962C10.5942 9.8629 11.0187 9.8629 11.349 9.64962L13.3607 8.35038C13.6909 8.1371 14.1155 8.1371 14.4458 8.35038L15.4575 9.00379C16.1229 9.43353 17 8.95586 17 8.16375V8V7.5V2C17 1.44772 16.5523 1 16 1H2C1.44772 1 1 1.44772 1 2Z" stroke="white"/>
<path d="M2.89516 13.0312L1.38743 14.1997C1.14303 14.3891 1 14.681 1 14.9902V18C1 18.5523 1.44772 19 2 19H16C16.5523 19 17 18.5523 17 18V14.5446C17 14.2051 16.8277 13.8887 16.5425 13.7045L14.4458 12.3504C14.1155 12.1371 13.6909 12.1371 13.3607 12.3504L11.349 13.6496C11.0187 13.8629 10.5942 13.8629 10.2639 13.6496L8.3048 12.3844C7.94826 12.1541 7.48519 12.174 7.14971 12.434L5.81451 13.4688C5.42118 13.7736 4.86356 13.7428 4.50615 13.3966L4.20353 13.1034C3.84612 12.7572 3.2885 12.7264 2.89516 13.0312Z" stroke="white"/>
<rect x="3.31445" y="3.25" width="5.69355" height="0.5" rx="0.25" fill="#121212" stroke="white" stroke-width="0.5"/>
<rect x="10.5403" y="3.25" width="3.62903" height="0.5" rx="0.25" fill="#121212" stroke="white" stroke-width="0.5"/>
<rect x="3.31445" y="5.25" width="10.8548" height="0.5" rx="0.25" fill="#121212" stroke="white" stroke-width="0.5"/>
<rect x="3.31445" y="16.25" width="10.8548" height="0.5" rx="0.25" fill="#020202" stroke="white" stroke-width="0.5"/>
</svg>
