<svg width="22" height="22" viewBox="0 0 22 22" fill="none" xmlns="http://www.w3.org/2000/svg">
<path d="M1 9.36311V20C1 20.5523 1.44772 21 2 21H6.84211C7.39439 21 7.84211 20.5523 7.84211 20V15.6842C7.84211 15.1319 8.28982 14.6842 8.84211 14.6842H12.6316C13.1839 14.6842 13.6316 15.1319 13.6316 15.6842V20C13.6316 20.5523 14.0793 21 14.6316 21H20C20.5523 21 21 20.5523 21 20V9.36311C21 9.06633 20.8682 8.78488 20.6402 8.59489L11.8045 1.23178C11.6247 1.08202 11.3982 1 11.1643 1H10.8357C10.6018 1 10.3753 1.08202 10.1955 1.23178L1.35982 8.59489C1.13182 8.78488 1 9.06633 1 9.36311Z" fill="#A4F343" stroke="#A4F343"/>
</svg>
